<svg xmlns="http://www.w3.org/2000/svg" width="69.434" height="43.977" viewBox="0 0 69.434 43.977"><defs><style>.a{fill:none;}.a,.b{stroke:#fff0e5;stroke-linecap:round;stroke-linejoin:round;}.b{fill:#fff0e5;}</style></defs><g transform="translate(-15.122 -52.71)"><path class="a" d="M63.19,119Z" transform="translate(-29.392 -40.652)"/><path class="b" d="M67.674,133.646a3.221,3.221,0,0,1-.871,2.224,3.623,3.623,0,0,1-1.968.8,6.9,6.9,0,0,1-4.012-.512,12,12,0,0,1-3.282-2.04,19.522,19.522,0,0,1-2.915-2.774,14.245,14.245,0,0,1-2.316-3.573,10.16,10.16,0,0,1-1.02-3.939,4.918,4.918,0,0,1,.581-3.278,4.2,4.2,0,0,1,3.9-1.616,16.193,16.193,0,0,0,.822,5.231c.413,1.242,2.132,6.381,7.073,8.571a11.352,11.352,0,0,0,4,.948A.286.286,0,0,0,67.674,133.646Z" transform="translate(-22.023 -40.591)"/><path class="a" d="M74.962,133.707v.034a11.352,11.352,0,0,1-4-.948c-4.941-2.189-6.66-7.329-7.073-8.57A16.193,16.193,0,0,1,63.059,119h.05a2.675,2.675,0,0,1,.443.1,8.025,8.025,0,0,1,.913.424,22.705,22.705,0,0,1,3.057,1.823,19.105,19.105,0,0,1,2.992,2.552,18.651,18.651,0,0,1,3.282,4.887,9.2,9.2,0,0,1,1.146,4.012A5.007,5.007,0,0,1,74.962,133.707Z" transform="translate(-29.311 -40.652)"/><path class="b" d="M108.759,54.658c-.489.382-1.227.963-2.113,1.677-1.624,1.314-2.675,2.209-5.544,4.669-4.111,3.523-4.2,3.611-4.665,4.012-2.086,1.853-2.06,1.91-4.23,3.863-3.473,3.118-3.8,3.191-6.056,5.326A40.976,40.976,0,0,0,81.7,78.872a34.771,34.771,0,0,0-3.21,4.967,37.064,37.064,0,0,0-3.439,9.228c.023-.336,0-.646,0-.913a9.794,9.794,0,0,0-1.146-4.012,18.651,18.651,0,0,0-3.282-4.887A19.106,19.106,0,0,0,67.633,80.7a22.705,22.705,0,0,0-3.057-1.823,8.024,8.024,0,0,0-.913-.424,2.675,2.675,0,0,0-.443-.1,26.7,26.7,0,0,0,3.821.16,21.219,21.219,0,0,0,11.085-3.21,60.167,60.167,0,0,0,5.689-3.867c2.453-1.781,2.977-2.216,6.782-5.032,3.152-2.331,3.122-2.293,4.738-3.5,2.14-1.616,3.229-2.5,5.689-4.448,1.555-1.227,3.867-3.057,6.748-5.25Z" transform="translate(-29.41)"/><path class="b" d="M25.878,94.642a3.206,3.206,0,0,1-1.865,1.433,3.646,3.646,0,0,1-2.1-.321,6.908,6.908,0,0,1-3.187-2.5,12.07,12.07,0,0,1-1.769-3.439,20.412,20.412,0,0,1-1.081-3.874,14.493,14.493,0,0,1-.164-4.268,10.072,10.072,0,0,1,1.146-3.9,4.976,4.976,0,0,1,2.182-2.518,4.2,4.2,0,0,1,4.2.615,13.469,13.469,0,0,0-2.014,3.848,14.521,14.521,0,0,0,1.7,12.063,12.17,12.17,0,0,0,1.494,1.731A10.928,10.928,0,0,0,25.878,94.642Z" transform="translate(0 -13.431)"/><path class="a" d="M35.434,91.3a9.487,9.487,0,0,1-1.058,4.043c-.134.237-.3.523-.493.81A10.928,10.928,0,0,1,32.431,95a12.17,12.17,0,0,1-1.494-1.716,14.507,14.507,0,0,1-1.708-12.051,13.469,13.469,0,0,1,2.014-3.848,1.037,1.037,0,0,0,.1.073c.1.084.187.176.275.267a8.543,8.543,0,0,1,.566.829A23.014,23.014,0,0,1,33.868,81.7a19.078,19.078,0,0,1,1.257,3.725A18.7,18.7,0,0,1,35.434,91.3Z" transform="translate(-8.005 -14.941)"/><path class="b" d="M87,80.563c-.619.076-1.528.195-2.675.352-2.067.29-3.439.527-7.153,1.146-5.349.917-5.472.936-6.06,1.051-2.747.516-2.755.585-5.617,1.146-4.585.9-4.9.791-7.932,1.463a39.158,39.158,0,0,0-6.209,1.727,34.7,34.7,0,0,0-5.3,2.606,37.063,37.063,0,0,0-7.7,6.19c.195-.287.359-.573.493-.81A9.6,9.6,0,0,0,39.9,91.392a18.7,18.7,0,0,0-.31-5.877,19.078,19.078,0,0,0-1.257-3.725,23.015,23.015,0,0,0-1.693-3.126,8.544,8.544,0,0,0-.566-.837c-.088-.092-.18-.183-.275-.267a26.713,26.713,0,0,0,3.156,2.079,23.056,23.056,0,0,0,4.715,2.04,22.042,22.042,0,0,0,6.442.875,60.489,60.489,0,0,0,6.878-.382c3.022-.267,3.691-.382,8.406-.837,3.9-.382,3.848-.355,5.865-.573,2.675-.29,4.054-.5,7.164-.9,1.964-.256,4.876-.627,8.486-1.047C86.933,79.39,86.963,79.979,87,80.563Z" transform="translate(-12.467 -15.046)"/><path class="a" d="M165.113,86a9.779,9.779,0,0,1,0,3.863c-.436,1.972-.657,5.617.585,6.114" transform="translate(-92.157 -20.261)"/><path class="a" d="M167.07,86.2a9.793,9.793,0,0,1,.6,3.821c-.126,2.014.229,5.647,1.528,5.961" transform="translate(-93.579 -20.385)"/><circle class="b" cx="0.929" cy="0.929" r="0.929" transform="translate(73.074 76.625)"/><circle class="b" cx="0.929" cy="0.929" r="0.929" transform="translate(75.913 76.274)"/><path class="a" d="M178.52,59.42a9.8,9.8,0,0,1,.474,3.821c-.191,2.01.038,5.655,1.33,6.01" transform="translate(-100.654 -3.837)"/><path class="a" d="M179.93,59.46A9.778,9.778,0,0,1,181,63.174c.122,2.014.917,5.579,2.251,5.731" transform="translate(-101.525 -3.862)"/><circle class="b" cx="0.929" cy="0.929" r="0.929" transform="translate(79.425 66.255)"/><circle class="b" cx="0.929" cy="0.929" r="0.929" transform="translate(82.199 65.563)"/></g></svg>