<svg xmlns="http://www.w3.org/2000/svg" width="67.023" height="57.12" viewBox="0 0 67.023 57.12"><defs><style>.a,.b{fill:#fff0e5;}.a{stroke:#fff0e5;stroke-miterlimit:10;stroke-width:2px;}</style></defs><g transform="matrix(1, -0.017, 0.017, 1, -26.095, -30.669)"><path class="a" d="M36.111,32.945a2.56,2.56,0,0,1,3.648,1.838,37.785,37.785,0,0,0,.886,3.772A42.733,42.733,0,0,0,44.462,47.5c.552.973,1.129,1.917,5.115,7.568,1.855,2.626,3.4,4.786,4.464,6.27a7.518,7.518,0,0,0-6.183.787,7.781,7.781,0,0,0-3.244,6.488,24.732,24.732,0,0,1-7.832-5.552,28.133,28.133,0,0,1-4.328-6.245,45.552,45.552,0,0,1-3.475-8.446,76.258,76.258,0,0,1-2.345-8.965l-.025-.1a2.96,2.96,0,0,1,2.333-3.479A17.853,17.853,0,0,0,31.7,35c.412-.161.915-.367,3.866-1.8Z"/><path class="a" d="M86.561,108.224q-2.378,3.3-4.757,6.62a3.842,3.842,0,0,1-1.764-1.426,4.378,4.378,0,0,1,.569-4.988,4.141,4.141,0,0,1,3.516-1.566A3.891,3.891,0,0,1,86.561,108.224Z" transform="translate(-31.117 -43.589)"/><path class="b" d="M83.6,117.93c-1.282,1.97-2.325,3.615-3.067,4.794-1.748,2.787-3.553,5.66-5.7,9.4-1.026,1.8-1.843,3.3-2.37,4.254l6.492,1.818q.94-3.883,1.859-7.832Q82.276,124.084,83.6,117.93Z" transform="translate(-26.99 -50.108)"/><path class="b" d="M82.74,117.93c-1.01,1.6-1.871,3.157-2.758,4.641L77.241,127.2c-.911,1.546-1.8,3.1-2.688,4.662l-2.593,4.712-.247-.581q3.252.89,6.492,1.822l-.5.289,1.237-5.045,1.237-4.988c.412-1.649.824-3.273,1.286-4.967S82.327,119.69,82.74,117.93Zm0,0c-.35,1.62-.684,3.3-1,4.971s-.635,3.438-.981,5.177l-.54,2.609-.565,2.523-1.167,5.07-.091.412-.392-.124q-3.252-.894-6.5-1.818L71,136.628l.247-.437c.878-1.571,1.76-3.141,2.663-4.7s1.855-3.087,2.819-4.6,1.941-3.017,2.956-4.534S81.812,119.36,82.74,117.93Z" transform="translate(-26.126 -50.108)"/><path class="a" d="M132.017,44.637a2.885,2.885,0,0,0-4.382,1.2c-.379.927-.824,1.917-1.352,2.947a41.13,41.13,0,0,1-5.264,7.749,83.779,83.779,0,0,1-6.22,6.183c-2.23,2.135-4.089,3.891-5.359,5.095a7.234,7.234,0,0,1,5.7,1.888A7.471,7.471,0,0,1,117,76.418a23.735,23.735,0,0,0,8.425-3.8,26.962,26.962,0,0,0,5.219-5.083,43.72,43.72,0,0,0,4.839-7.337,74.126,74.126,0,0,0,3.862-8.038l.041-.095a2.844,2.844,0,0,0-1.558-3.71,17.128,17.128,0,0,1-2.473-1.27c-.371-.227-.791-.511-3.318-2.411Z" transform="translate(-48.72 -6.691)"/><path class="a" d="M104,108.988q2.135,3.5,4.258,7.007a3.8,3.8,0,0,0,1.88-1.29,4.388,4.388,0,0,0-.177-5.05,4.146,4.146,0,0,0-3.4-1.851A3.937,3.937,0,0,0,104,108.988Z" transform="translate(-45.523 -44.155)"/><path class="b" d="M100.83,118.28c1.167,1.979,2.123,3.632,2.795,4.815,1.6,2.795,3.24,5.676,5.181,9.427.927,1.793,1.649,3.277,2.135,4.254l-6.55,1.476q-.734-3.825-1.443-7.725Q101.832,124.348,100.83,118.28Z" transform="translate(-43.659 -50.314)"/><path class="b" d="M100.83,118.28c.824,1.434,1.834,2.91,2.795,4.46s1.826,3.013,2.708,4.534,1.74,3.059,2.564,4.617,1.612,3.129,2.407,4.7l.231.453-.5.115q-3.269.754-6.554,1.476l-.412.091-.074-.412-.89-4.992-.437-2.5-.412-2.564c-.256-1.719-.491-3.438-.709-5.1S101.09,119.875,100.83,118.28Zm0,0c.313,1.74.643,3.434,1,5.107s.7,3.3,1.022,4.9l.969,4.913.965,4.979-.482-.317q3.277-.754,6.554-1.476l-.272.569-2.337-4.716c-.8-1.562-1.6-3.12-2.432-4.666l-2.473-4.637C102.524,121.462,101.749,119.883,100.83,118.28Z" transform="translate(-43.659 -50.314)"/></g></svg>