<svg xmlns="http://www.w3.org/2000/svg" width="70.433" height="58.76" viewBox="0 0 70.433 58.76"><defs><style>.a,.c{fill:#fff0e5;}.a,.b,.c{stroke:#fff0e5;stroke-linejoin:round;stroke-width:2px;}.b{fill:none;}.b,.c{stroke-linecap:round;}</style></defs><g transform="translate(-21.09 -34.49)"><path class="a" d="M25.317,90.923a4.083,4.083,0,0,0,2.321,2,4.26,4.26,0,0,0,3.766-.8,4.531,4.531,0,0,0,1.522-2.24,7.908,7.908,0,0,1,.663,2c.231,1.282.611,3.36-.722,4.809a4.4,4.4,0,0,1-4.647.962,4.788,4.788,0,0,1-2.565-2.484,5.878,5.878,0,0,1-.338-4.249Z" transform="translate(-1.705 -31.139)"/><path class="a" d="M31.293,110.984a3.377,3.377,0,0,0,1.988,1.573,3.505,3.505,0,0,0,3.078-.8,3.775,3.775,0,0,0,1.18-1.9,6.806,6.806,0,0,1,.6,1.629c.235,1.043.62,2.753-.427,3.993a3.638,3.638,0,0,1-3.8.958,3.946,3.946,0,0,1-2.2-1.962A4.848,4.848,0,0,1,31.293,110.984Z" transform="translate(-5.181 -42.577)"/><path class="a" d="M36.913,127.755a2.868,2.868,0,0,0,1.77,1.206,2.967,2.967,0,0,0,2.565-.855,3.155,3.155,0,0,0,.881-1.676,5.776,5.776,0,0,1,.6,1.342c.261.855.684,2.283-.124,3.39a3.082,3.082,0,0,1-3.151,1.035,3.373,3.373,0,0,1-1.975-1.526,4.1,4.1,0,0,1-.569-2.915Z" transform="translate(-8.449 -52.064)"/><circle class="a" cx="4.48" cy="4.48" r="4.48" transform="translate(22.09 50.251)"/><path class="a" d="M80.953,92.163a4.112,4.112,0,0,1-2.326,2,4.257,4.257,0,0,1-3.762-.8A4.6,4.6,0,0,1,73.34,91.12a8.272,8.272,0,0,0-.65,2c-.231,1.282-.607,3.36.722,4.809a4.4,4.4,0,0,0,4.647.962,4.8,4.8,0,0,0,2.565-2.484,5.869,5.869,0,0,0,.329-4.245Z" transform="translate(-28.836 -31.849)"/><path class="a" d="M76.95,112.219a3.364,3.364,0,0,1-1.984,1.569A3.536,3.536,0,0,1,71.884,113a3.766,3.766,0,0,1-1.176-1.907,6.78,6.78,0,0,0-.6,1.633c-.235,1.039-.624,2.749.427,3.989a3.629,3.629,0,0,0,3.8.958,3.976,3.976,0,0,0,2.2-1.958A4.839,4.839,0,0,0,76.95,112.219Z" transform="translate(-27.338 -43.282)"/><path class="a" d="M72.742,128.985a2.881,2.881,0,0,1-1.77,1.21,2.992,2.992,0,0,1-2.565-.855,3.163,3.163,0,0,1-.881-1.68,5.6,5.6,0,0,0-.6,1.342c-.261.855-.688,2.283.124,3.394a3.074,3.074,0,0,0,3.151,1.03,3.369,3.369,0,0,0,1.975-1.522A4.13,4.13,0,0,0,72.742,128.985Z" transform="translate(-25.469 -52.768)"/><circle class="a" cx="4.48" cy="4.48" r="4.48" transform="translate(44.679 50.777)"/><circle class="a" cx="3.052" cy="3.052" r="3.052" transform="translate(34.616 79.145)"/><path class="b" d="M36.84,52.508a9.123,9.123,0,0,1,2.086-2.326,9.366,9.366,0,0,1,4.967-1.924c-1.039-.817-2.112-1.71-3.206-2.723q-1.214-1.1-2.244-2.163l3.766-2.244,1.924,3.446c.346.774.693,1.552,1.043,2.326q.56-3.245,1.137-6.489l3.125.4q-.522,1.766-1.043,3.527l-1.359,3.685a11.474,11.474,0,0,1,2.963,0,10.162,10.162,0,0,1,3.125.881,9.443,9.443,0,0,1,3.847,3.527" transform="translate(-8.444 -2.817)"/><path class="c" d="M52.968,153.61A29.321,29.321,0,0,0,50,157.936c-.427.757-.722,1.4-.479,1.684s1.064.133,1.6-.244a3.305,3.305,0,0,0,1.039-2C52.4,156.453,52.707,155.119,52.968,153.61Z" transform="translate(-15.655 -67.625)"/><path class="c" d="M60,153.61a28.894,28.894,0,0,1,2.963,4.326c.427.757.727,1.4.483,1.684s-1.069.133-1.6-.244a3.137,3.137,0,0,1-1.043-2C60.56,156.453,60.256,155.119,60,153.61Z" transform="translate(-21.704 -67.625)"/><path class="a" d="M111.578,86.03a4.112,4.112,0,0,0,2.326,2,4.267,4.267,0,0,0,3.766-.8A4.587,4.587,0,0,0,119.191,85a8.336,8.336,0,0,1,.641,2c.231,1.282.611,3.36-.722,4.809a4.4,4.4,0,0,1-4.647.962,4.8,4.8,0,0,1-2.565-2.484A5.891,5.891,0,0,1,111.578,86.03Z" transform="translate(-51.086 -28.345)"/><path class="a" d="M117.573,106.069a3.394,3.394,0,0,0,1.988,1.569,3.53,3.53,0,0,0,3.078-.791,3.736,3.736,0,0,0,1.176-1.907,6.758,6.758,0,0,1,.6,1.633c.235,1.039.62,2.749-.427,3.988a3.634,3.634,0,0,1-3.8.958,3.988,3.988,0,0,1-2.206-1.958A4.865,4.865,0,0,1,117.573,106.069Z" transform="translate(-54.576 -39.761)"/><path class="a" d="M123.193,122.841a2.851,2.851,0,0,0,1.77,1.21,2.992,2.992,0,0,0,2.565-.855,3.2,3.2,0,0,0,.881-1.676,5.663,5.663,0,0,1,.6,1.338c.261.855.688,2.283-.124,3.394a3.074,3.074,0,0,1-3.151,1.03,3.339,3.339,0,0,1-1.971-1.522A4.1,4.1,0,0,1,123.193,122.841Z" transform="translate(-57.845 -49.253)"/><circle class="a" cx="4.48" cy="4.48" r="4.48" transform="translate(58.97 48.148)"/><path class="a" d="M167.243,87.243a4.113,4.113,0,0,1-2.326,2,4.259,4.259,0,0,1-3.766-.8,4.553,4.553,0,0,1-1.522-2.244,8.379,8.379,0,0,0-.641,2c-.231,1.282-.611,3.36.722,4.805a4.39,4.39,0,0,0,4.647.962,4.8,4.8,0,0,0,2.565-2.484A5.891,5.891,0,0,0,167.243,87.243Z" transform="translate(-78.242 -29.032)"/><path class="a" d="M163.228,107.3a3.42,3.42,0,0,1-1.988,1.573,3.528,3.528,0,0,1-3.078-.8,3.728,3.728,0,0,1-1.176-1.9,6.558,6.558,0,0,0-.6,1.629c-.239,1.043-.624,2.753.427,3.993a3.638,3.638,0,0,0,3.8.953,3.959,3.959,0,0,0,2.2-1.958A4.865,4.865,0,0,0,163.228,107.3Z" transform="translate(-76.732 -40.471)"/><path class="a" d="M158.992,124.071a2.851,2.851,0,0,1-1.77,1.21,2.992,2.992,0,0,1-2.565-.855,3.215,3.215,0,0,1-.885-1.676,5.831,5.831,0,0,0-.6,1.338c-.261.855-.688,2.287.124,3.394a3.065,3.065,0,0,0,3.151,1.03,3.352,3.352,0,0,0,1.975-1.522,4.1,4.1,0,0,0,.569-2.92Z" transform="translate(-74.847 -49.957)"/><circle class="a" cx="4.48" cy="4.48" r="4.48" transform="translate(81.563 48.678)"/><circle class="a" cx="3.052" cy="3.052" r="3.052" transform="translate(71.499 77.042)"/><path class="b" d="M123.12,47.588a9.1,9.1,0,0,1,2.086-2.321,9.366,9.366,0,0,1,4.967-1.924c-1.035-.821-2.108-1.71-3.2-2.727-.8-.727-1.548-1.453-2.244-2.163l3.766-2.24,1.924,3.446,1.039,2.321q.564-3.245,1.124-6.489l3.125.4c-.351,1.176-.7,2.347-1.043,3.523q-.68,1.847-1.364,3.685a11.513,11.513,0,0,1,2.967,0,10.076,10.076,0,0,1,3.125.885,9.4,9.4,0,0,1,3.847,3.523" transform="translate(-57.841)"/><path class="c" d="M139.228,148.69a29.117,29.117,0,0,0-2.992,4.326c-.427.757-.727,1.4-.483,1.684s1.069.137,1.6-.239a3.129,3.129,0,0,0,1.043-2C138.668,151.469,138.959,150.2,139.228,148.69Z" transform="translate(-65.023 -64.808)"/><path class="c" d="M146.28,148.69a29.116,29.116,0,0,1,2.963,4.326c.427.757.727,1.4.483,1.684s-1.069.137-1.6-.239a3.149,3.149,0,0,1-1.043-2C146.827,151.469,146.536,150.2,146.28,148.69Z" transform="translate(-71.1 -64.808)"/></g></svg>