<svg xmlns="http://www.w3.org/2000/svg" xmlns:xlink="http://www.w3.org/1999/xlink" width="29.946" height="36.51" viewBox="0 0 29.946 36.51"><defs><style>.a{fill:#fffeb6;}.b{filter:url(#a);}</style><filter id="a" x="0" y="0" width="29.946" height="36.51" filterUnits="userSpaceOnUse"><feOffset dy="3" input="SourceAlpha"/><feGaussianBlur stdDeviation="3" result="b"/><feFlood flood-opacity="0.161"/><feComposite operator="in" in2="b"/><feComposite in="SourceGraphic"/></filter></defs><g transform="translate(9 6)"><g class="b" transform="matrix(1, 0, 0, 1, -9, -6)"><path class="a" d="M13.279,16.985,5.415,24.849a1.382,1.382,0,0,1-1.96,0L2.148,23.542a1.382,1.382,0,0,1,0-1.96l5.574-5.574L2.148,10.433a1.382,1.382,0,0,1,0-1.96l1.3-1.318a1.382,1.382,0,0,1,1.96,0l7.864,7.864a1.384,1.384,0,0,1,.006,1.966Z" transform="translate(7.26 -0.75)"/></g></g></svg>