<svg xmlns="http://www.w3.org/2000/svg" width="36" height="27" viewBox="0 0 36 27"><defs><style>.a{fill:#ffdcc3;}</style></defs><path class="a" d="M18,4.5C7.739,4.5,0,8.853,0,14.625v6.9C0,27.034,8.059,31.5,18,31.5s18-4.466,18-9.975v-6.9C36,8.853,28.261,4.5,18,4.5ZM18,9c7.456,0,13.5,2.519,13.5,5.625a2.9,2.9,0,0,1-.767,1.856A25.813,25.813,0,0,0,18,13.5,25.813,25.813,0,0,0,5.267,16.481,2.9,2.9,0,0,1,4.5,14.625C4.5,11.519,10.544,9,18,9ZM8.468,18.608A24.75,24.75,0,0,1,18,16.875a24.75,24.75,0,0,1,9.532,1.733A25.672,25.672,0,0,1,18,20.25,25.672,25.672,0,0,1,8.468,18.608Z" transform="translate(0 -4.5)"/></svg>