<svg xmlns="http://www.w3.org/2000/svg" width="78.174" height="40.955" viewBox="0 0 78.174 40.955"><defs><style>.a{fill:none;}.a,.b{stroke:#fff0e5;stroke-miterlimit:10;stroke-width:2px;}.b{fill:#fff0e5;}</style></defs><g transform="translate(-17.42 -41.08)"><rect class="a" width="28.978" height="28.978" transform="translate(42.165 51.095)"/><rect class="a" width="24.943" height="24.943" transform="translate(44.185 54.972)"/><path class="b" d="M96.428,114.608H68.165a2.449,2.449,0,0,1-2.445-2.449V103.33H99.569c.221.452,0,3.881,0,8.133A3.163,3.163,0,0,1,96.428,114.608Z" transform="translate(-25.927 -33.574)"/><path class="b" d="M98.593,55.324H68.6a1.356,1.356,0,0,1-1.13-2.1l7.37-11.143H92.357l7.37,11.143a1.356,1.356,0,0,1-1.134,2.1Z" transform="translate(-26.763)"/><path class="b" d="M135.11,83.64h22.281a1.157,1.157,0,0,1,1.166,1.157h0a1.157,1.157,0,0,1-1.157,1.157H135.11Z" transform="translate(-63.963 -22.781)"/><path class="b" d="M0,0H22.277a1.157,1.157,0,0,1,1.157,1.161h0a1.157,1.157,0,0,1-1.157,1.157H0Z" transform="translate(41.853 63.073) rotate(180)"/><path class="b" d="M84.928,68.348a13.636,13.636,0,0,1-.655,3.253,14.229,14.229,0,0,1-3.863,5.937,14.2,14.2,0,0,1,1.261,2.643,14.351,14.351,0,0,1,.813,5.043l-7.054.122V67.86Z" transform="translate(-31.25 -14.131)"/><path class="b" d="M108.83,67.9a13.863,13.863,0,0,0,.651,3.253,14.229,14.229,0,0,0,3.863,5.937,14.2,14.2,0,0,0-1.274,2.643,14.351,14.351,0,0,0-.813,5.043l7.054.122V67.41Z" transform="translate(-49.557 -13.884)"/></g></svg>