<svg xmlns="http://www.w3.org/2000/svg" xmlns:xlink="http://www.w3.org/1999/xlink" viewBox="0 0 200 200"><defs><style>.cls-1{fill:url(#New_Gradient_Swatch_2);}.cls-2{fill:url(#New_Gradient_Swatch_3);}.cls-3{fill:url(#New_Gradient_Swatch_3-2);}.cls-4{fill:url(#New_Gradient_Swatch_3-3);}.cls-5{fill:url(#New_Gradient_Swatch_3-4);}</style><linearGradient id="New_Gradient_Swatch_2" x1="54" y1="102.68" x2="161.41" y2="102.68" gradientUnits="userSpaceOnUse"><stop offset="0" stop-color="#bc7f86"/><stop offset="0.11" stop-color="#de9c9d"/><stop offset="0.2" stop-color="#f5afad"/><stop offset="0.3" stop-color="#f7c8c7"/><stop offset="0.39" stop-color="#f9dbdb"/><stop offset="0.71" stop-color="#b37780"/><stop offset="0.85" stop-color="#d8a1a8"/><stop offset="1" stop-color="#ffccd2"/></linearGradient><linearGradient id="New_Gradient_Swatch_3" x1="213.05" y1="44.3" x2="148.69" y2="209.18" gradientUnits="userSpaceOnUse"><stop offset="0" stop-color="#bb7f85"/><stop offset="0.11" stop-color="#dd9b9c"/><stop offset="0.2" stop-color="#f4aeac"/><stop offset="0.3" stop-color="#f6c7c6"/><stop offset="0.39" stop-color="#f8dada"/><stop offset="0.71" stop-color="#b27780"/><stop offset="0.85" stop-color="#d7a0a7"/><stop offset="1" stop-color="#ffcbd1"/></linearGradient><linearGradient id="New_Gradient_Swatch_3-2" x1="148.14" y1="19.47" x2="84.37" y2="182.85" xlink:href="#New_Gradient_Swatch_3"/><linearGradient id="New_Gradient_Swatch_3-3" x1="183.04" y1="32.26" x2="118.43" y2="197.78" xlink:href="#New_Gradient_Swatch_3"/><linearGradient id="New_Gradient_Swatch_3-4" x1="89.91" y1="-2.27" x2="26.41" y2="160.4" xlink:href="#New_Gradient_Swatch_3"/></defs><g id="Layer_9" data-name="Layer 9"><path class="cls-1" d="M84.91,58.62a13.37,13.37,0,0,0-10.62-2.81,16.23,16.23,0,0,0-5.2,2,25.68,25.68,0,0,0-4.54,3.32,23,23,0,0,0-6.29,9.06,13.82,13.82,0,0,0-.88,5.24,12,12,0,0,0,1.26,5,6.6,6.6,0,0,0,3.4,3.2,8.78,8.78,0,0,0,4.88.31,17.2,17.2,0,0,0,2.57-.7c.43-.15.84-.31,1.28-.49s.79-.35,1.17-.56A14.91,14.91,0,0,0,76,79a27,27,0,0,0,5.1-9.62,51.23,51.23,0,0,0,2.17-11l3.54.37c-.59,4.73-1.28,9.59-1.5,14.31s-.11,9.51,1.4,13.84a18.08,18.08,0,0,0,3.35,5.88A19.6,19.6,0,0,0,95.43,97,25.08,25.08,0,0,0,109,99.92a23.93,23.93,0,0,0,6.89-1.5,24.6,24.6,0,0,0,14.33-14.89,16,16,0,0,0,.94-6.87,7.76,7.76,0,0,0-1.06-3.13,6,6,0,0,0-2.37-2.16,4.25,4.25,0,0,0-5.49,1.21A14.26,14.26,0,0,0,120,78.91l-2-.53A3.45,3.45,0,0,0,116.81,75a4.69,4.69,0,0,0-1.68-1,4.2,4.2,0,0,0-1.91-.12,6.25,6.25,0,0,0-3.55,2,8.19,8.19,0,0,0-2,3.74,22.23,22.23,0,0,0,.17,9.21,28.53,28.53,0,0,0,3.31,8.77,24,24,0,0,0,6.06,6.93,22.19,22.19,0,0,0,8.22,3.94,18.44,18.44,0,0,0,8.92,0,17.5,17.5,0,0,0,7.71-4.31,15.1,15.1,0,0,0,2.68-3.45,11.53,11.53,0,0,0,.91-2,7.3,7.3,0,0,0,.5-1.91,3.33,3.33,0,0,0-.61-2.82,1.52,1.52,0,0,0-1-.42,3,3,0,0,0-1.41.26,3.75,3.75,0,0,0-1.3.9,6.8,6.8,0,0,0-1.07,1.56,26.84,26.84,0,0,0-1.55,4.31c-1,3.11-1.78,6.27-2.47,9.46s-1.27,6.41-1.68,9.65-.77,6.49-.92,9.75a124.76,124.76,0,0,0,.56,19.61l-3.25.15a34.12,34.12,0,0,1,3.68-14.31,27.33,27.33,0,0,1,2-3.2,12.74,12.74,0,0,1,1.3-1.51,5,5,0,0,1,.88-.71,3,3,0,0,1,1.35-.52,2.18,2.18,0,0,1,1.77.57,3,3,0,0,1,.75,1.24,10.29,10.29,0,0,1,.38,2c.12,1.23.19,2.39.34,3.52a9.48,9.48,0,0,0,2.46,5.85,8.13,8.13,0,0,0,5.94,2.09,6.92,6.92,0,0,0,5.45-3.26,9.25,9.25,0,0,0,1.15-6.61.2.2,0,0,1,.39-.09,9.68,9.68,0,0,1-.76,7.16,8,8,0,0,1-6.1,4.14,9.66,9.66,0,0,1-7.26-2.11,8.79,8.79,0,0,1-2.31-3.2,16.85,16.85,0,0,1-1-3.64c-.22-1.22-.34-2.43-.51-3.56a7.32,7.32,0,0,0-.34-1.49c-.06-.19-.16-.3-.15-.27a.42.42,0,0,0,.13.07,2.4,2.4,0,0,0-.75.59,9.66,9.66,0,0,0-1,1.24,22.64,22.64,0,0,0-1.64,2.94,32.65,32.65,0,0,0-2.87,13.19,1.63,1.63,0,0,1-3.25.19v0c-.47-3.34-.81-6.69-1-10.06s-.21-6.74-.12-10.11a115.2,115.2,0,0,1,2.34-20.1c.67-3.31,1.48-6.6,2.45-9.84a26.8,26.8,0,0,1,1.83-5,10.94,10.94,0,0,1,1.76-2.52,8,8,0,0,1,2.76-1.91A7.23,7.23,0,0,1,145,89.3a5.74,5.74,0,0,1,3.5,1.57,6.36,6.36,0,0,1,1.78,3.23,9.46,9.46,0,0,1,.11,3.21,10.79,10.79,0,0,1-.77,2.89,16.07,16.07,0,0,1-1.23,2.54,19.25,19.25,0,0,1-3.48,4.34,21.59,21.59,0,0,1-9.57,5.17,22.33,22.33,0,0,1-10.81-.16,25.82,25.82,0,0,1-9.55-4.75,26.53,26.53,0,0,1-6.8-8.12,31.67,31.67,0,0,1-3.44-9.88,33.66,33.66,0,0,1-.49-5.21,18.27,18.27,0,0,1,.67-5.35c1-3.55,4-6.93,8-7.39a7.52,7.52,0,0,1,1.5,0,6.83,6.83,0,0,1,1.5.35,6.93,6.93,0,0,1,2.5,1.64A6.28,6.28,0,0,1,120,75.94a5.09,5.09,0,0,1,0,3.11v0a1,1,0,0,1-2-.58,16.19,16.19,0,0,1,3-7.09,6.18,6.18,0,0,1,3.56-2.14,6,6,0,0,1,4.06.71,7.81,7.81,0,0,1,2.88,2.77,9.08,9.08,0,0,1,1.2,3.74,17.74,17.74,0,0,1-1.12,7.44,26.5,26.5,0,0,1-8.6,12,26.09,26.09,0,0,1-13.7,5.5,27.75,27.75,0,0,1-14.66-2.57,22.06,22.06,0,0,1-6.19-4.48,20.21,20.21,0,0,1-4.11-6.53c-1.9-4.82-2.25-10-2.18-14.9.06-2.49.23-5,.46-7.39s.47-4.83.81-7.32h0a1.78,1.78,0,0,1,3.53.38,49.44,49.44,0,0,1-2.34,11.88,30.27,30.27,0,0,1-5.92,10.81,17.64,17.64,0,0,1-5.06,4c-.48.25-1,.45-1.49.67s-1,.36-1.45.53a21.1,21.1,0,0,1-3.09.75,11.91,11.91,0,0,1-6.61-.63A9.41,9.41,0,0,1,56,81.8a14.7,14.7,0,0,1-1.37-6.28,16.75,16.75,0,0,1,1.25-6.18,24.94,24.94,0,0,1,7.35-9.65,25.81,25.81,0,0,1,5.07-3.27,17.66,17.66,0,0,1,5.77-1.85,13.38,13.38,0,0,1,6,.64,14.66,14.66,0,0,1,5.07,3.1.22.22,0,0,1,0,.29A.21.21,0,0,1,84.91,58.62Z"/></g><g id="Circle_2" data-name="Circle 2"><ellipse class="cls-2" cx="191.47" cy="99.57" rx="2.61" ry="2.57"/><path class="cls-3" d="M191.38,88.34a.66.66,0,0,1-.66-.56c-6.05-40.55-42.07-71.14-83.8-71.14a85.56,85.56,0,0,0-29,5,.67.67,0,0,1-.85-.39.64.64,0,0,1,.4-.83,86.87,86.87,0,0,1,86,15.69A84.29,84.29,0,0,1,192,87.6a.65.65,0,0,1-.56.73Z"/><path class="cls-4" d="M106.92,184.66a87.5,87.5,0,0,1-23.81-3.29.65.65,0,0,1-.45-.8.66.66,0,0,1,.81-.45,86,86,0,0,0,23.45,3.24c41.66,0,77.68-30.53,83.79-71a.65.65,0,0,1,.74-.55.67.67,0,0,1,.56.74,84.29,84.29,0,0,1-28.66,51.37,86,86,0,0,1-25.78,15.23A86.92,86.92,0,0,1,106.92,184.66Z"/><path class="cls-5" d="M8.9,67.27c-.74,3-1.3,6.27-.16,9.26,1.74,4.33,5.21,7.8,6.38,12.41a.31.31,0,0,1,0-.08c.85,2.75-.1,5.66-.12,8.48v-.07c0,1,0,2,0,3-.33-.49-.66-1-1-1.46-.92-1.36-2.11-2.53-3-3.94s-1-2.86-1.85-4.13v0l-.08-.13h0v0h0c-.06-.08-.09-.22-.22-.18s0,.17,0,.26C9,96,9.53,101.24,10,106.48c.3,7.17.41,15.06,5.56,20.73,2.53,2.83,5.21,5.74,8.68,7.46a37.27,37.27,0,0,1,9,6.38,32.38,32.38,0,0,1,2.65,3.81l0-.05a78.12,78.12,0,0,0,8.7,10.79l0,0,0,0c4.58,5.67,10.66,9.89,16.45,14.25l-.26-.05c-4.08-1.12-8.61-1.56-12.36-3.48-6.08-5.44-11.2-11.87-17.48-17.14l.07.06c-3.05-2.59-5.89-5.4-9.23-7.65l.06,0c-4.58-3.3-10.25-4.81-15.75-5.7H6c-.12,0-.09.2,0,.2H6a.11.11,0,0,1,.08,0,14.41,14.41,0,0,1,2.68,1.56A45.29,45.29,0,0,1,21.64,151.2c3.34,5,6.61,10.14,11.82,13.44,2.88,2.54,6.11,5,10.06,5.55,5.77.67,11.59-1,17.32.43l-.11,0c3.52.69,6.15,3.39,9.24,5l-.07,0c1.32.7,2.62,1.42,3.94,2.13l0,0a2.14,2.14,0,0,0,.47.2h0l.18.05-.11,0c.42.2,1.1,0,.92-.55-.63-1-2.21-1.27-3.13-2.07-7.49-3.82-14.11-9-20.55-14.27l.06.05-.08-.07h0c-2.64-2.41-5.57-4.83-7.29-8l0,0c-2-3.48-4-7-4.86-10.89h0l0-.1v0c0-.06,0-.11,0-.17a.36.36,0,0,1,0,.1c-.17-.75-.32-1.51-.44-2.27v-.27h0v0c-.33-3.6,1.86-6.36,3.73-9.17,3.35-5.07,1.06-10.62-.2-16h0l0-.06h0v-.06c-.88-3.08-2.26-6-3.36-9-.71-2.47-.78-4.74-1.15-.39v0c-.22,3.37-2,6.36-2.53,9.68a21.14,21.14,0,0,0,.41,6.24,25.88,25.88,0,0,0,.52,6v0a.29.29,0,0,0,0,.09h0l0,.09v0c2.06,8.29.13,15.9,5.21,23.71-6.6-8-11.41-17.17-15.25-26.68-.81-2.66-4-9.19-2.35-11.42l0,0a.61.61,0,0,1,.07-.1l0,0,.32-.49a.61.61,0,0,1-.07.1,29.4,29.4,0,0,1,2.09-2.76A32.67,32.67,0,0,0,31,103.69l0,0,0,0h0l.05-.07h0c6.19-9.19,0-15.5,1.82-24.4,0-1.11-1.35,1.29-1.58,1.57-2.76,5-4.91,10-4.8,15.84-.1,5.24-2.12,10-3.61,15C21.35,104.8,20.6,97.8,22.42,91h0l.06-.19c1.78-4,.5-8.29,1-12.47a25.4,25.4,0,0,1,2.77-7.75A12.68,12.68,0,0,0,29,66v0h0c0-.09,0-.19,0-.28h0s0-.08,0-.12v0c.19-2.1-.43.1-.85.57l0,0-.16.2,0,0a3.42,3.42,0,0,1-.49.58l0,0-.24.22h0c-.54.49-1.14.92-1.65,1.45l0,0c-.42.4-.81.81-1.24,1.2h0c-6.17,4.85-7,14.92-5.35,22,.1.44.21.88.32,1.32a23.71,23.71,0,0,1,.67,4.43v0s0,.05,0,.07c0,14.85,5.2,29.34,12.62,42.14-1.87-1.82-4-3.32-5.66-5.4-.94-1.18-1.27-2.67-2.06-3.93-.77-1-1.79-1.85-2.48-2.95h0a8.37,8.37,0,0,1-1-3c-.55-4-.33-8.09-1.05-12.07v0a.52.52,0,0,0,0-.11h0a38.8,38.8,0,0,0-4.83-10.58c.4-.83,0-2,.25-2.91-.11-6.77,1.09-13.43,2.48-20l0,.06a.24.24,0,0,0,0-.08v0c.74-2.81,1.37-5.81,3-8.24l0,0c1.78-2.73,3.53-5.54,6.07-7.65h0l.07-.06,0,0,.11-.09-.07.06c.48-.41,1-.82,1.49-1.19h0l.1-.06,0,0,.16-.09h0c2.5-1.63,5.36-1.14,8.14-.91,5,.41,8.16-3.36,11.58-6.32h0l0,0h0l0,0c1.91-1.81,3.51-3.91,5.27-5.85,1.53-1.46,3.17-2.38-.15-1h0c-2.55,1.15-5.44,1-8,2A17.9,17.9,0,0,0,41.85,52a21.06,21.06,0,0,0-4.16,2.67l0,0,0,0-.06.06h0l-.06,0h0C32.35,59.39,26.05,61,22.31,67.58A81.53,81.53,0,0,1,35.9,46.49c1.62-1.6,5.15-6.39,7.43-6.07h0l.49,0h-.11a22,22,0,0,1,2.82.4A27.05,27.05,0,0,0,52.44,42h.07c9.1.83,11.3-6,18.51-8.14.82-.44-1.46-.46-1.76-.52-4.73,0-9.21.4-13.41,2.73C52,38,47.69,38.44,43.51,39.3c4.4-3.72,9.22-6.95,14.92-8.31h0l.16,0c3.62-.29,6.25-2.85,9.49-4.12a21.54,21.54,0,0,1,6.72-1,10.74,10.74,0,0,0,4.44.19h0l.23-.08h0l.1,0h0c1.61-.68-.23-.27-.74-.38h0l-.21,0h0a3.25,3.25,0,0,1-.62-.13l0,0-.26-.09h0c-.57-.19-1.12-.45-1.7-.61l0,0c-.45-.14-.91-.26-1.35-.41h0c-5.92-2.48-13.6.8-18.16,4.74l-.84.74a20,20,0,0,1-3,2.19h0l0,0C42,37.68,33.44,47,27,57.17a46.05,46.05,0,0,1,1.76-6.09,30.32,30.32,0,0,1,2.07-3c.45-1,.66-2,1.19-2.9h0a7,7,0,0,1,1.79-1.84C36.48,41.45,39.55,40,42.18,38l0,0,.08-.07h0a35.07,35.07,0,0,0,7.16-9.87c.63-1.18,1-2.47,1.73-3.61s1.69-1.84,2.31-2.91l0,0a.61.61,0,0,0,.07-.1h0c0-.07.13-.15.06-.23s-.15,0-.22.08c-3.74,2.17-7.39,4.54-11,6.93-5.12,3-10.84,6.11-13,11.94-1.09,2.89-2.18,5.91-2.09,9A29.73,29.73,0,0,1,26,58a27.3,27.3,0,0,1-1.75,3.35s0,0,0,0A64,64,0,0,0,19.8,71.63l0,0v0c-2.37,5.43-3.09,11.36-4,17.14l-.06-.2c-.77-3.32-2.2-6.69-2.24-10.09,1.62-6.4,4.34-12.5,5.75-19,0,0,0,.05,0,.07a87.3,87.3,0,0,0,2-9.48v.06c.64-4.52-.45-9.11-1.93-13.35h0l0,0h0c-.06-.07-.18,0-.13.09h0a.19.19,0,0,1,0,.07,11.57,11.57,0,0,1-.1,2.49,36.4,36.4,0,0,1-4.87,14.31C11.8,58,9.3,62.31,8.9,67.27ZM47,40.14h0l.11,0-.08,0ZM50,49.05a18.83,18.83,0,0,0,2.49-.46A40.08,40.08,0,0,1,46.8,51.8l.08,0c-2.68,1.35-5.48,2.43-8.23,3.62-.59.26-1.18.53-1.78.78l0,0,0,0,1-.89,0,0,0-.05a22.94,22.94,0,0,1,4.45-2.89A14.27,14.27,0,0,1,50,49.05h0Zm2.31.84v0h0Zm-20,9.6c6.9-4.11,14.84-6.28,21.36-11.05A17.13,17.13,0,0,1,52.26,50h0a49.24,49.24,0,0,1-7.41,6.87,10.29,10.29,0,0,1-4.14,2.57c-2.7.8-5.37-.24-8.05,0C32.55,59.44,32.44,59.47,32.33,59.49ZM25.8,108.44h0l.09-.09a.46.46,0,0,1-.07.07Zm12.5-1a48,48,0,0,1,.2,8v-.1c-.08,3.62-.52,7.23-.8,10.84l-.18,2.35v-.05s0,0,0,.05c-.12-.53-.26-1.06-.39-1.59v0s0,0,0-.08c-.65-2.09-.45-4.26-.59-6.41a16.86,16.86,0,0,1,.8-10,.14.14,0,0,0,0-.06v0A21.63,21.63,0,0,0,38.3,107.45Zm1.31,1v0Zm-1,26.45c0,.12-.08.25-.12.38-.5-9.71,1.73-19.41.29-29.1a22.68,22.68,0,0,1,.83,2.4h0a59,59,0,0,1,3.23,11.86c.43,1.94,1,3.91.41,5.89C42.61,129.62,39.92,131.84,38.65,134.85ZM16.47,66.62l0-.06-.24.61,0-.06-.24.63h0c-.1.27-.19.55-.29.82,0,0,0,0,0-.06-.37,1.12-1,2.12-1.41,3.23h0c-.28.68-.5,1.38-.75,2.07l0-.06a.42.42,0,0,1,0,.1c1.12-5.93,1.77-11.93,3.15-17.81l0,.08,0-.07h0v0l0-.07v0s0-.06,0-.08h0a.19.19,0,0,1,0-.07l0,0c.68-2.25,1.67-4.4,2.2-6.69a.14.14,0,0,0,0,.06l.21-.79v0c0-.11,0-.21.08-.32h0v0a27.2,27.2,0,0,0,.78-6.6c0-.14,0-.28,0-.42.22,1.5.44,3,.6,4.51v0c0,7.09-2,14-4.05,20.68l0,0Zm-4.19-8a.16.16,0,0,1,0,.07c.87-1.49,1.5-3.09,2.38-4.58a.43.43,0,0,1,0,.07A38.1,38.1,0,0,0,19.64,39.9a1.48,1.48,0,0,1,0-.21,32.08,32.08,0,0,1-.82,8.17v0c-.63,2.67-1.74,5.18-2.6,7.78a117.75,117.75,0,0,0-2.3,12.63c-.92,5-2.15,10.07-.28,15C11.46,80.24,8.81,77,8.75,73.06,9.16,68.15,9.85,63,12.28,58.59Z"/></g></svg>