<svg xmlns="http://www.w3.org/2000/svg" xmlns:xlink="http://www.w3.org/1999/xlink" viewBox="0 0 200 200"><defs><style>.cls-1{fill:url(#New_Gradient_Swatch_2);}.cls-2{fill:url(#New_Gradient_Swatch_3);}.cls-3{fill:url(#New_Gradient_Swatch_3-2);}.cls-4{fill:url(#New_Gradient_Swatch_3-3);}.cls-5{fill:url(#New_Gradient_Swatch_3-4);}</style><linearGradient id="New_Gradient_Swatch_2" x1="57.49" y1="102.77" x2="156.34" y2="102.77" gradientUnits="userSpaceOnUse"><stop offset="0" stop-color="#bc7f86"/><stop offset="0.11" stop-color="#de9c9d"/><stop offset="0.2" stop-color="#f5afad"/><stop offset="0.3" stop-color="#f7c8c7"/><stop offset="0.39" stop-color="#f9dbdb"/><stop offset="0.71" stop-color="#b37780"/><stop offset="0.85" stop-color="#d8a1a8"/><stop offset="1" stop-color="#ffccd2"/></linearGradient><linearGradient id="New_Gradient_Swatch_3" x1="201.77" y1="49.29" x2="143.18" y2="199.39" gradientUnits="userSpaceOnUse"><stop offset="0" stop-color="#bb7f85"/><stop offset="0.11" stop-color="#dd9b9c"/><stop offset="0.2" stop-color="#f4aeac"/><stop offset="0.3" stop-color="#f6c7c6"/><stop offset="0.39" stop-color="#f8dada"/><stop offset="0.71" stop-color="#b27780"/><stop offset="0.85" stop-color="#d7a0a7"/><stop offset="1" stop-color="#ffcbd1"/></linearGradient><linearGradient id="New_Gradient_Swatch_3-2" x1="143.43" y1="26.52" x2="84.84" y2="176.61" xlink:href="#New_Gradient_Swatch_3"/><linearGradient id="New_Gradient_Swatch_3-3" x1="175" y1="38.84" x2="116.41" y2="188.94" xlink:href="#New_Gradient_Swatch_3"/><linearGradient id="New_Gradient_Swatch_3-4" x1="91.48" y1="6.9" x2="33.64" y2="155.08" xlink:href="#New_Gradient_Swatch_3"/></defs><g id="Background"><rect width="200" height="200" rx="27.06"/></g><g id="Layer_9" data-name="Layer 9"><path class="cls-1" d="M86.37,62.33a11.58,11.58,0,0,0-9.45-2.24A14.67,14.67,0,0,0,72.41,62a23.4,23.4,0,0,0-3.93,3.06,20.36,20.36,0,0,0-5.28,8.09,12.27,12.27,0,0,0-.65,4.48,10.26,10.26,0,0,0,1.12,4.18A5,5,0,0,0,66.3,84.3a6.91,6.91,0,0,0,3.89.16,15,15,0,0,0,2.16-.62c.36-.14.72-.28,1.09-.46l.94-.51a4,4,0,0,0,.91-.57l.86-.64c.29-.21.53-.52.8-.76a8.45,8.45,0,0,0,.77-.81A24.21,24.21,0,0,0,82,71.67c.49-1.58.86-3.2,1.2-4.83a44.74,44.74,0,0,0,.69-4.9l5.31.54-.81,6.45c-.27,2.16-.48,4.3-.6,6.42a34.13,34.13,0,0,0,1,12.26,15.92,15.92,0,0,0,2.7,5.2,17.15,17.15,0,0,0,4.57,3.87,21.35,21.35,0,0,0,12,2.81,20.83,20.83,0,0,0,6.14-1.29,22.25,22.25,0,0,0,5.47-3.14,21.76,21.76,0,0,0,7.18-10.23,14.25,14.25,0,0,0,.78-6.08,6.77,6.77,0,0,0-.91-2.67,4.78,4.78,0,0,0-2-1.79,3.28,3.28,0,0,0-4.33,1,12.9,12.9,0,0,0-1.87,5.55l-3-.78a2.6,2.6,0,0,0-.92-2.46,3.26,3.26,0,0,0-1.27-.73,2.46,2.46,0,0,0-.65-.11,3.64,3.64,0,0,0-.74.06,4.91,4.91,0,0,0-2.72,1.64,5.94,5.94,0,0,0-.93,1.41,8.4,8.4,0,0,0-.57,1.69,20.16,20.16,0,0,0,.31,8A26.5,26.5,0,0,0,111,97.23a20.75,20.75,0,0,0,5.22,6,18.51,18.51,0,0,0,7,3.36,15.25,15.25,0,0,0,7.48-.09,14.32,14.32,0,0,0,6.35-3.73,12.81,12.81,0,0,0,2.15-2.91,12.06,12.06,0,0,0,.7-1.61,5.82,5.82,0,0,0,.33-1.44,3.09,3.09,0,0,0-.06-1.11c-.07-.27-.13-.29-.14-.31h-.11a1.44,1.44,0,0,0-.68.17,2,2,0,0,0-.38.23,1.07,1.07,0,0,0-.16.14c-.05.06-.13.13-.19.21a5.1,5.1,0,0,0-.75,1.19,28.19,28.19,0,0,0-1.29,3.77q-1.29,4.2-2.21,8.5a114.08,114.08,0,0,0-2.05,35.05l-4.88.22a32.42,32.42,0,0,1,3.51-13.33,26.13,26.13,0,0,1,1.86-3,13.58,13.58,0,0,1,1.25-1.47,6.49,6.49,0,0,1,.9-.75,3.68,3.68,0,0,1,1.52-.62,2.85,2.85,0,0,1,1.15.06,2.62,2.62,0,0,1,1.1.6,3.2,3.2,0,0,1,.9,1.44,8.92,8.92,0,0,1,.36,2c.1,1.15.13,2.19.24,3.19A8.42,8.42,0,0,0,142,138a6.76,6.76,0,0,0,5,1.93,5.86,5.86,0,0,0,4.72-2.73,8.45,8.45,0,0,0,1.14-5.86.3.3,0,0,1,.25-.35.3.3,0,0,1,.33.22,9.07,9.07,0,0,1-.54,6.67,7.6,7.6,0,0,1-2.31,2.71,7.72,7.72,0,0,1-3.39,1.35,9,9,0,0,1-7-2,8.5,8.5,0,0,1-2.22-3.1,15.64,15.64,0,0,1-1-3.44c-.21-1.12-.34-2.24-.51-3.23a5.35,5.35,0,0,0-.3-1.18c0-.12-.1-.1.07.08a1,1,0,0,0,.75.25c.17,0,.14,0,.06,0a3.17,3.17,0,0,0-.32.32,9.54,9.54,0,0,0-.76,1.05,20.08,20.08,0,0,0-1.38,2.6A29.41,29.41,0,0,0,132.21,145a2.45,2.45,0,0,1-4.87.33v-.11c-.45-3-.8-6.12-1-9.2s-.23-6.18-.18-9.27a105.93,105.93,0,0,1,2-18.44q.88-4.57,2.16-9A28.09,28.09,0,0,1,132,94.51a11.58,11.58,0,0,1,1.68-2.6c.18-.22.38-.41.58-.62s.46-.42.7-.6a8.83,8.83,0,0,1,1.55-1,7.91,7.91,0,0,1,3.69-.78,6.57,6.57,0,0,1,4,1.57,7,7,0,0,1,2.15,3.52,9.38,9.38,0,0,1,.22,3.37,11.17,11.17,0,0,1-.7,3,18.28,18.28,0,0,1-1.15,2.5,19,19,0,0,1-3.3,4.28,20.43,20.43,0,0,1-9.19,5.13,20.91,20.91,0,0,1-10.4-.13,24.11,24.11,0,0,1-9-4.63,25.31,25.31,0,0,1-6.35-7.76,29.45,29.45,0,0,1-3.11-9.32,32.86,32.86,0,0,1-.39-4.87,17.78,17.78,0,0,1,.67-5.09A12.51,12.51,0,0,1,104.64,78a9.67,9.67,0,0,1,1.72-2.25,8.66,8.66,0,0,1,5.11-2.53,6.93,6.93,0,0,1,1.51,0,6.36,6.36,0,0,1,4,2.07,6.29,6.29,0,0,1,1.51,2.62,5.27,5.27,0,0,1-.07,3.19l0,.09a1.53,1.53,0,0,1-2,.94,1.56,1.56,0,0,1-1-1.81,15.64,15.64,0,0,1,2.84-6.66,6.14,6.14,0,0,1,3.5-2.12,5.85,5.85,0,0,1,4,.72A7.68,7.68,0,0,1,128.56,75a8.92,8.92,0,0,1,1.1,3.57,17.11,17.11,0,0,1-1,6.91,24.85,24.85,0,0,1-7.82,11.08,24.07,24.07,0,0,1-12.58,5.21,25.15,25.15,0,0,1-13.59-2.36,20.42,20.42,0,0,1-5.8-4.2A19.49,19.49,0,0,1,85,89c-1.8-4.52-2.12-9.28-2.1-13.82,0-2.28.18-4.53.36-6.76s.4-4.38.7-6.68h0a2.67,2.67,0,0,1,5.31.55,46.05,46.05,0,0,1-2.13,11,29.26,29.26,0,0,1-5.5,10.18,10,10,0,0,1-1.07,1.09,13.92,13.92,0,0,1-1.13,1,15.15,15.15,0,0,1-2.63,1.7L75.34,88c-.43.18-.9.35-1.37.51a18.43,18.43,0,0,1-3,.72,11.48,11.48,0,0,1-6.51-.65,9.32,9.32,0,0,1-4.77-4.77,14.32,14.32,0,0,1-1.26-6.05,15.81,15.81,0,0,1,1.19-5.87,23.35,23.35,0,0,1,6.85-9,23.61,23.61,0,0,1,4.72-3,16.22,16.22,0,0,1,5.37-1.69,12.23,12.23,0,0,1,5.58.72,13.09,13.09,0,0,1,4.57,3,.31.31,0,0,1,0,.43A.3.3,0,0,1,86.37,62.33Z"/></g><g id="Circle_2" data-name="Circle 2"><circle class="cls-2" cx="182.13" cy="99.61" r="2.34"/><path class="cls-3" d="M182,89.36a.6.6,0,0,1-.59-.5C176,51.85,143.68,24,106.22,24a75.65,75.65,0,0,0-26.07,4.59.59.59,0,0,1-.76-.36.58.58,0,0,1,.35-.75A77.27,77.27,0,0,1,182.63,88.68a.61.61,0,0,1-.5.68Z"/><path class="cls-4" d="M106.22,177.23a77.39,77.39,0,0,1-21.39-3,.59.59,0,0,1,.33-1.13,76.19,76.19,0,0,0,21.06,3c37.4,0,69.74-27.86,75.22-64.79a.59.59,0,0,1,.67-.5.59.59,0,0,1,.5.67,77.15,77.15,0,0,1-76.39,65.8Z"/><path class="cls-5" d="M18.21,70.14c-.67,2.75-1.17,5.72-.14,8.45,1.56,4,4.67,7.12,5.72,11.32a.64.64,0,0,0,0-.07c.77,2.51-.09,5.16-.1,7.73v-.06c0,.93,0,1.85,0,2.78-.3-.45-.59-.89-.9-1.33-.82-1.24-1.89-2.31-2.65-3.59s-.93-2.61-1.66-3.77v0a.75.75,0,0,0-.07-.12h0l0,0h0c-.05-.08-.08-.2-.2-.17s-.05.16,0,.25c.18,4.78.62,9.57,1.08,14.34.27,6.54.37,13.74,5,18.91,2.27,2.58,4.68,5.24,7.79,6.8a33.93,33.93,0,0,1,8,5.83,30.43,30.43,0,0,1,2.38,3.47.08.08,0,0,1,0,0,72.5,72.5,0,0,0,7.81,9.85l0,0,0,0c4.11,5.18,9.57,9,14.78,13l-.24,0c-3.67-1-7.74-1.41-11.1-3.17-5.46-5-10-10.83-15.7-15.64l.07.06a96.41,96.41,0,0,0-8.28-7l.05,0c-4.12-3-9.21-4.38-14.15-5.19h-.08c-.1,0-.07.18,0,.17h0l.08,0a12.73,12.73,0,0,1,2.4,1.42A41.17,41.17,0,0,1,29.65,146.7c3,4.55,5.93,9.26,10.61,12.27,2.58,2.32,5.49,4.59,9,5.06,5.18.61,10.4-.92,15.55.39h-.09c3.15.63,5.52,3.09,8.29,4.6L73,169c1.18.64,2.35,1.29,3.53,1.95l0,0a2,2,0,0,0,.42.19h0l.17.05-.1,0c.37.19,1,0,.82-.5-.57-.91-2-1.16-2.81-1.89-6.72-3.48-12.67-8.17-18.45-13l.06,0-.08-.06h0c-2.37-2.2-5-4.41-6.54-7.28l0,0c-1.75-3.17-3.61-6.35-4.36-9.94h0l0-.09v0c0-.05,0-.1,0-.15a.29.29,0,0,1,0,.09c-.15-.69-.29-1.38-.39-2.07v-.25h0v0c-.29-3.29,1.68-5.8,3.36-8.37,3-4.62,1-9.69-.19-14.57h0l0-.05h0v0c-.79-2.81-2-5.48-3-8.21-.64-2.26-.69-4.33-1-.36v0c-.2,3.08-1.83,5.81-2.27,8.83a19.43,19.43,0,0,0,.37,5.69,23.71,23.71,0,0,0,.46,5.45v0s0,.06,0,.09h0l0,.08v0c1.85,7.56.12,14.51,4.68,21.64-5.93-7.26-10.25-15.67-13.69-24.35-.73-2.42-3.61-8.38-2.11-10.42l0,.05.06-.09,0,0,.3-.45L32,111a24.4,24.4,0,0,1,1.87-2.51,29.6,29.6,0,0,0,4.19-5.14l0,0,0,0h0l0-.07h0c5.57-8.38,0-14.14,1.64-22.26,0-1-1.21,1.18-1.42,1.44-2.47,4.58-4.41,9.14-4.31,14.44-.09,4.79-1.9,9.17-3.24,13.68-1.36-6.23-2-12.61-.4-18.86h0a1.09,1.09,0,0,1,0-.17c1.6-3.66.45-7.57.89-11.38a23.66,23.66,0,0,1,2.48-7.06,11.56,11.56,0,0,0,2.5-4.2v0h0c0-.09,0-.17,0-.26h0a.49.49,0,0,1,0-.12v0c.17-1.91-.39.09-.77.52l0,0-.14.19,0,0a3.82,3.82,0,0,1-.45.53l0,0a2.09,2.09,0,0,1-.22.2h0c-.49.45-1,.85-1.49,1.33l0,0c-.37.36-.72.74-1.1,1.09h0C26.77,76.71,26,85.89,27.51,92.4c.09.4.19.8.28,1.2a21.31,21.31,0,0,1,.61,4.05v0c0,13.55,4.66,26.77,11.33,38.45-1.68-1.67-3.64-3-5.08-4.93-.85-1.07-1.14-2.44-1.85-3.58-.7-.94-1.61-1.7-2.23-2.69h0a7.7,7.7,0,0,1-.87-2.7c-.49-3.66-.3-7.38-.95-11v0a.36.36,0,0,1,0-.1h0a35.37,35.37,0,0,0-4.34-9.65c.36-.76,0-1.81.23-2.65a83.56,83.56,0,0,1,2.22-18.29v.06s0,0,0-.08v0c.67-2.56,1.24-5.3,2.7-7.52l0,0a29.63,29.63,0,0,1,5.46-7h0L35,66l0,0,.09-.09-.06.06c.43-.38.88-.75,1.34-1.09h0l.09,0,0,0,.15-.08h0c2.24-1.48,4.81-1,7.3-.83,4.49.38,7.33-3.06,10.4-5.76h0l0,0h0l0,0c1.71-1.66,3.15-3.58,4.73-5.35,1.37-1.32,2.84-2.17-.14-.88h0c-2.29,1-4.88.93-7.22,1.79a16,16,0,0,0-4,2.46,19.17,19.17,0,0,0-3.73,2.44l0,0,0,0-.06,0h0l-.05,0h0C39.26,63,33.6,64.4,30.24,70.43A74.75,74.75,0,0,1,42.45,51.18c1.45-1.46,4.63-5.82,6.67-5.54h0l.44,0h-.1A21.58,21.58,0,0,1,52,46a23.88,23.88,0,0,0,5.3,1h.06c8.17.75,10.15-5.49,16.62-7.43.73-.4-1.31-.42-1.58-.47-4.24,0-8.27.37-12,2.49-3.47,1.79-7.32,2.18-11.08,3,3.95-3.39,8.28-6.34,13.39-7.58h0l.14,0c3.25-.27,5.61-2.61,8.52-3.76a19,19,0,0,1,6-.95,9.4,9.4,0,0,0,4,.17h0l.2-.07h0l.09,0h0c1.45-.61-.21-.24-.66-.35h0l-.19,0h0a2.57,2.57,0,0,1-.55-.12h0l-.23-.07h0c-.52-.17-1-.41-1.53-.55h0c-.4-.12-.81-.23-1.21-.37h0c-5.32-2.26-12.22.74-16.31,4.33l-.75.67a18.4,18.4,0,0,1-2.67,2h0l0,0c-9.75,5.22-17.43,13.7-23.25,23A42.5,42.5,0,0,1,36,55.37a27.66,27.66,0,0,1,1.86-2.71c.41-.86.59-1.81,1.07-2.64h0a6.36,6.36,0,0,1,1.6-1.67c2.44-1.76,5.19-3.07,7.56-4.94l0,0,.07-.06h0a32,32,0,0,0,6.43-9c.57-1.07.93-2.25,1.56-3.29s1.51-1.68,2.06-2.66v0l.06-.09h0c0-.07.12-.14.05-.21s-.13,0-.19.07c-3.36,2-6.63,4.15-9.88,6.32-4.6,2.73-9.74,5.58-11.66,10.9-1,2.63-2,5.39-1.88,8.23a27.62,27.62,0,0,1-1.07,8A24.44,24.44,0,0,1,32,64.73l0,0A58.56,58.56,0,0,0,28,74.12v0c-2.13,5-2.78,10.36-3.63,15.64l-.06-.19c-.68-3-2-6.11-2-9.2,1.46-5.84,3.9-11.41,5.17-17.32l0,.07a77.74,77.74,0,0,0,1.82-8.65v.05c.58-4.12-.4-8.31-1.73-12.17v0h0l0,0h0v0c-.05-.06-.16,0-.11.09h0s0,0,0,.06a10.16,10.16,0,0,1-.1,2.27,33.46,33.46,0,0,1-4.37,13.06C20.81,61.69,18.57,65.62,18.21,70.14ZM52.39,45.39h0l.09,0-.07,0Zm2.74,8.13a16.7,16.7,0,0,0,2.24-.42A35.7,35.7,0,0,1,52.23,56l.07,0c-2.4,1.23-4.91,2.22-7.38,3.31l-1.6.71,0,0,0,0,.9-.81,0,0,0,0a19.72,19.72,0,0,1,4-2.64,12.66,12.66,0,0,1,6.87-3h0Zm2.08.76h0ZM39.25,63C45.44,59.29,52.57,57.31,58.42,53a16.6,16.6,0,0,1-1.28,1.38h0a44.27,44.27,0,0,1-6.64,6.27A9.26,9.26,0,0,1,46.76,63c-2.42.73-4.81-.21-7.22,0ZM33.38,107.7h0l.09-.08-.07.06Zm11.22-.9a45,45,0,0,1,.19,7.25V114c-.07,3.3-.46,6.59-.72,9.89,0,.71-.1,1.42-.16,2.14v0a.06.06,0,0,1,0,0c-.11-.48-.23-1-.35-1.45v0l0-.08c-.58-1.9-.4-3.89-.53-5.84a15.54,15.54,0,0,1,.72-9.17.17.17,0,0,0,0,0v0A19.14,19.14,0,0,0,44.6,106.8Zm1.18.87v0Zm-.86,24.12-.11.35c-.45-8.86,1.55-17.71.26-26.55.29.71.53,1.45.75,2.19h0a54.89,54.89,0,0,1,2.9,10.82c.38,1.77.86,3.57.37,5.38C48.47,127,46.06,129.05,44.92,131.79ZM25,69.55l0-.06-.21.56,0-.06-.21.58h0l-.26.75a.14.14,0,0,1,0-.06c-.33,1-.9,1.94-1.27,3h0c-.25.62-.44,1.26-.67,1.89l0,0,0,.09c1-5.41,1.58-10.89,2.83-16.25l0,.07v-.06h0v0l0,0v0a.19.19,0,0,0,0-.08v0s0-.05,0-.07l0,0c.61-2,1.5-4,2-6.11v.06c.06-.24.13-.48.19-.72v0c0-.1.06-.2.08-.3v0a25.4,25.4,0,0,0,.7-6c0-.13,0-.26,0-.39.2,1.37.39,2.74.54,4.12v0h0c0,6.46-1.76,12.73-3.63,18.86v0C25.08,69.35,25,69.45,25,69.55Zm-3.76-7.33,0,.07c.78-1.36,1.34-2.83,2.13-4.18l0,.06a35.22,35.22,0,0,0,4.54-13,1.15,1.15,0,0,1,0-.19,30.06,30.06,0,0,1-.73,7.45h0v0c-.56,2.44-1.56,4.73-2.33,7.1a104.46,104.46,0,0,0-2.06,11.52c-.83,4.57-1.94,9.19-.26,13.71-2-2.82-4.34-5.76-4.4-9.37C18.44,70.94,19.06,66.22,21.24,62.22Z"/></g></svg>